<svg width="1197" height="1313" fill="none" xmlns="http://www.w3.org/2000/svg"><path d="M192.998 1312.83h197.198V.502H.507V245.78L390.196 658.7.507 1066.72v246.11h192.491Z" fill="url(#a)"/><path d="M665.755 1070.56 482.796 658.7l192.198-424.784L776.027.502h420.553l-148.92 344.859S903.352 656.38 903.352 662.841c0 8.076 68.848 154.143 144.308 320.503 76.99 166.356 148.92 329.486 148.92 329.486H772.169l-106.414-242.27Z" fill="url(#b)"/><path d="M.507 658.7V402.538L243.581 658.7.507 914.53V658.7Z" fill="url(#c)"/><defs><linearGradient id="a" x1="598.545" y1="1312.83" x2="598.545" y2=".502" gradientUnits="userSpaceOnUse"><stop stop-color="#2D3244"/><stop offset=".392" stop-color="#5664CA"/><stop offset="1" stop-color="#BFC7FF"/></linearGradient><linearGradient id="b" x1="598.545" y1="1312.83" x2="598.545" y2=".502" gradientUnits="userSpaceOnUse"><stop stop-color="#2D3244"/><stop offset=".392" stop-color="#5664CA"/><stop offset="1" stop-color="#BFC7FF"/></linearGradient><linearGradient id="c" x1="598.545" y1="1312.83" x2="598.545" y2=".502" gradientUnits="userSpaceOnUse"><stop stop-color="#2D3244"/><stop offset=".392" stop-color="#5664CA"/><stop offset="1" stop-color="#BFC7FF"/></linearGradient></defs></svg>